<svg width="119" height="30" viewBox="0 0 119 30" fill="none" xmlns="http://www.w3.org/2000/svg">
<path fill-rule="evenodd" clip-rule="evenodd" d="M47.2496 23.5951V10.5942H49.9394V23.5951H47.2496ZM48.6181 8.87174C48.0518 8.87174 47.5721 8.69085 47.1788 8.32906C46.7856 7.96727 46.5889 7.51896 46.5889 6.98414C46.5889 6.44932 46.7856 6.00101 47.1788 5.63922C47.5721 5.2617 48.0518 5.07294 48.6181 5.07294C49.1687 5.07294 49.6406 5.2617 50.0338 5.63922C50.4428 6.00101 50.6473 6.44932 50.6473 6.98414C50.6473 7.51896 50.4428 7.96727 50.0338 8.32906C49.6406 8.69085 49.1687 8.87174 48.6181 8.87174ZM67.0429 23.5951V6.13472H69.7328V16.0447C70.5665 15.9031 71.3608 15.6121 72.1159 15.1716C72.8866 14.7155 73.5552 14.1099 74.1214 13.3548C74.7035 12.584 75.1124 11.6638 75.3484 10.5942H78.1798C77.9438 11.6324 77.5506 12.584 77 13.4492C76.4495 14.2986 75.8046 15.0379 75.0652 15.6671C74.3417 16.2806 73.5788 16.7446 72.7765 17.0592C73.3743 17.2323 73.9799 17.5311 74.5933 17.9559C75.2068 18.3648 75.781 18.8603 76.3158 19.4423C76.8663 20.0244 77.3304 20.6693 77.7079 21.3771C78.1011 22.085 78.3528 22.8243 78.4629 23.5951H75.6315C75.4742 22.84 75.1911 22.1558 74.7821 21.5423C74.3889 20.9131 73.917 20.3704 73.3664 19.9142C72.8316 19.4423 72.2496 19.0648 71.6204 18.7817C70.9912 18.4828 70.362 18.3019 69.7328 18.239V23.5951H67.0429ZM79.4635 10.5942V23.5951H82.1534V17.0357C82.1534 16.1705 82.2871 15.4548 82.5545 14.8885C82.8376 14.3065 83.223 13.8739 83.7106 13.5908C84.1983 13.2919 84.7646 13.1425 85.4095 13.1425C85.5353 13.1425 85.6533 13.1503 85.7634 13.1661C85.8893 13.1661 86.0151 13.1818 86.1409 13.2132V10.429C85.2286 10.429 84.4106 10.7043 83.687 11.2549C82.9792 11.7897 82.468 12.5211 82.1534 13.4492V10.5942H79.4635ZM93.0762 23.7603C91.8493 23.7603 90.7403 23.485 89.7493 22.9344C88.7741 22.3839 87.9954 21.6052 87.4134 20.5985C86.8471 19.5918 86.564 18.4199 86.564 17.0828C86.564 15.7301 86.855 14.5582 87.437 13.5672C88.0348 12.5762 88.837 11.8054 89.8437 11.2549C90.8504 10.7043 91.9673 10.429 93.1942 10.429C94.4369 10.429 95.5537 10.7043 96.5447 11.2549C97.5514 11.8054 98.3458 12.5762 98.9278 13.5672C99.5256 14.5582 99.8244 15.7301 99.8244 17.0828C99.8244 18.4199 99.5177 19.5918 98.9042 20.5985C98.3065 21.6052 97.4964 22.3839 96.4739 22.9344C95.4515 23.485 94.3189 23.7603 93.0762 23.7603ZM93.0762 21.4243C93.7526 21.4243 94.3897 21.267 94.9874 20.9524C95.6009 20.6221 96.0964 20.1345 96.4739 19.4895C96.8672 18.8446 97.0638 18.0424 97.0638 17.0828C97.0638 16.1076 96.875 15.3053 96.4975 14.6761C96.12 14.0312 95.6324 13.5514 95.0346 13.2368C94.4526 12.9222 93.8234 12.7649 93.147 12.7649C92.4706 12.7649 91.8414 12.9222 91.2594 13.2368C90.6774 13.5514 90.2055 14.0312 89.8437 14.6761C89.4819 15.3053 89.301 16.1076 89.301 17.0828C89.301 18.0424 89.4741 18.8446 89.8201 19.4895C90.1662 20.1345 90.6223 20.6221 91.1886 20.9524C91.7706 21.267 92.3998 21.4243 93.0762 21.4243ZM100.006 10.5942H102.743L105.46 21.0354L108.217 10.5942H111.025L113.671 20.9966L116.357 10.5942H119L114.965 23.5951H112.134L109.525 14.0017L106.896 23.5951H104.064L100.006 10.5942ZM52.6638 10.5942V23.5951H55.3536V16.7997C55.3536 16.0132 55.4952 15.3211 55.7783 14.7233C56.0614 14.1099 56.4468 13.6301 56.9345 13.284C57.4378 12.938 58.0041 12.7649 58.6333 12.7649C59.6086 12.7649 60.3951 13.1031 60.9928 13.7795C61.5906 14.4559 61.8894 15.384 61.8894 16.5638V23.5951H64.5557V15.9267C64.5557 14.7627 64.3433 13.7717 63.9186 12.9537C63.5096 12.1357 62.9276 11.5144 62.1726 11.0897C61.4333 10.6493 60.5681 10.429 59.5771 10.429C58.9951 10.429 58.4131 10.5549 57.8311 10.8066C57.2648 11.0582 56.7614 11.4043 56.321 11.8447C55.8806 12.2694 55.5581 12.7571 55.3536 13.3076V10.5942H52.6638ZM41.0948 6.13472V20.6221C41.0948 21.3614 41.2521 21.967 41.5667 22.4389C41.8813 22.8951 42.2824 23.2333 42.77 23.4535C43.2577 23.658 43.7532 23.7602 44.2565 23.7602C44.8857 23.7602 45.4284 23.6265 45.8846 23.3591L45.3183 21.3771C45.1767 21.4401 45.0116 21.4715 44.8228 21.4715C44.5397 21.4715 44.2959 21.3771 44.0914 21.1884C43.8869 20.9996 43.7846 20.7322 43.7846 20.3861V6.13472H41.0948Z" fill="#1F514C"/>
<path fill-rule="evenodd" clip-rule="evenodd" d="M29.1006 0H21.8254H14.5503H7.27515V7.27515H14.5503V14.5503H7.27515V21.8254H0V29.1006H7.27515V21.8254H14.5503V14.5503H21.8254V21.8254H29.1006V14.5503V7.27515V0Z" fill="#1F514C"/>
</svg>
